<?xml version="1.0" standalone="no"?>
<!DOCTYPE svg PUBLIC "-//W3C//DTD SVG 20010904//EN"
 "http://www.w3.org/TR/2001/REC-SVG-20010904/DTD/svg10.dtd">
<svg version="1.0" xmlns="http://www.w3.org/2000/svg"
 width="4000.000000pt" height="4000.000000pt" viewBox="0 0 4000.000000 4000.000000"
 preserveAspectRatio="xMidYMid meet">

<g transform="translate(0.000000,4000.000000) scale(0.100000,-0.100000)"
fill="#000000" stroke="none">
<path d="M18430 39980 c-3305 -268 -6370 -1291 -9145 -3053 -992 -630 -1912
-1337 -2830 -2177 -243 -222 -930 -909 -1155 -1155 -1506 -1645 -2680 -3430
-3571 -5424 -38 -85 -68 -155 -66 -157 2 -2 54 110 117 249 143 316 488 1007
658 1317 720 1315 1574 2533 2551 3640 529 599 1192 1262 1791 1791 2205 1946
4839 3394 7645 4204 1626 469 3192 716 4945 778 41 2 -103 3 -320 4 -299 1
-449 -4 -620 -17z"/>
<path d="M20630 39993 c958 -34 1808 -118 2685 -264 2708 -452 5262 -1447
7580 -2952 925 -600 1801 -1281 2660 -2067 242 -221 929 -908 1150 -1150 576
-629 1113 -1291 1574 -1937 68 -95 125 -173 128 -173 10 0 -302 433 -506 700
-561 736 -1090 1340 -1780 2031 -724 723 -1362 1279 -2156 1875 -2881 2165
-6336 3516 -9915 3879 -534 54 -740 65 -1129 63 -201 -1 -332 -3 -291 -5z"/>
<path d="M19430 39664 c-1055 -41 -1835 -119 -2730 -270 -4975 -841 -9446
-3583 -12482 -7654 -2241 -3006 -3571 -6583 -3838 -10320 -38 -542 -45 -746
-45 -1420 0 -674 7 -878 45 -1420 304 -4265 1994 -8309 4820 -11535 533 -609
1236 -1312 1845 -1845 3227 -2827 7266 -4514 11535 -4819 541 -39 746 -46
1420 -46 908 0 1474 32 2320 131 5046 587 9695 3145 12936 7119 2554 3131
4076 6966 4363 10995 39 543 46 746 46 1420 0 674 -7 877 -46 1420 -416 5823
-3397 11144 -8164 14571 -2253 1620 -4845 2748 -7570 3294 -974 196 -1876 307
-2955 365 -187 11 -1325 21 -1500 14z m460 -1093 c0 -34 -39 -209 -80 -359
-54 -200 -116 -383 -408 -1192 -196 -545 -380 -1081 -428 -1247 -2 -7 -16 -13
-31 -14 -15 0 -103 -6 -195 -12 -93 -7 -168 -9 -168 -5 0 14 111 313 182 491
l71 178 -20 37 c-12 20 -222 406 -468 857 -247 451 -491 889 -543 973 -51 85
-92 155 -90 157 4 3 412 45 414 42 25 -35 737 -1372 803 -1508 l96 -197 39
147 c21 80 103 344 182 586 179 551 216 676 259 888 19 93 36 171 37 172 3 2
235 19 316 23 25 2 32 -2 32 -17z m1469 -27 c2 -2 -30 -269 -70 -593 -40 -325
-69 -594 -65 -598 8 -8 1357 -176 1363 -169 6 5 100 774 113 915 5 64 10 149
10 189 0 39 3 72 8 72 4 0 88 -7 187 -15 99 -8 188 -15 198 -15 12 0 17 -8 17
-25 0 -14 -65 -556 -145 -1203 -152 -1239 -165 -1356 -165 -1464 0 -58 -3 -68
-17 -68 -39 0 -378 43 -386 50 -4 3 27 281 68 618 41 336 75 619 75 629 0 16
-63 26 -681 101 -374 46 -683 81 -686 78 -9 -9 -121 -947 -133 -1108 -5 -83
-11 -152 -13 -153 -4 -4 -392 47 -396 51 -3 3 62 545 143 1207 131 1070 165
1376 166 1497 l0 35 203 -14 c111 -8 204 -15 206 -17z m-6973 -76 c74 -46 134
-88 134 -93 0 -23 -99 -155 -169 -226 -284 -285 -739 -393 -1103 -263 -120 43
-115 24 -47 191 32 81 62 150 67 154 4 4 50 -11 102 -32 201 -81 323 -93 464
-45 145 49 243 135 347 307 30 48 58 88 63 89 5 0 69 -37 142 -82z m10413
-508 c57 -16 106 -31 108 -34 6 -6 -548 -1717 -614 -1896 -25 -69 -63 -162
-84 -207 -21 -46 -35 -83 -32 -83 4 0 72 64 152 143 118 115 319 280 1050 861
l903 719 176 -47 c96 -25 177 -48 179 -50 2 -2 -150 -475 -337 -1052 -188
-577 -361 -1110 -385 -1184 -24 -74 -60 -195 -79 -269 -19 -73 -37 -136 -40
-138 -3 -3 -91 23 -196 56 -181 59 -191 63 -184 84 110 360 632 1937 670 2027
29 68 52 125 50 127 -1 2 -33 -33 -71 -76 -37 -43 -95 -103 -129 -133 -47 -43
-1547 -1240 -1843 -1471 l-62 -49 -176 58 c-124 42 -174 62 -170 72 47 123
759 2343 788 2458 l41 161 91 -24 c49 -14 137 -38 194 -53z m-9389 -1220 c210
-646 406 -1238 435 -1315 30 -77 51 -143 47 -146 -8 -8 -375 -130 -378 -126
-11 11 -623 1918 -646 2011 -47 198 -44 191 -52 96 -4 -47 -16 -128 -26 -180
-14 -74 -645 -2369 -653 -2376 -4 -4 -351 -113 -352 -111 -1 1 -147 448 -323
992 -424 1305 -442 1359 -500 1503 l-51 123 27 10 c15 6 102 39 194 74 l167
62 35 -106 c435 -1322 621 -1918 641 -2056 4 -25 10 -45 14 -45 4 0 13 48 20
107 7 59 21 148 31 197 14 66 594 2180 635 2317 3 9 72 41 178 81 94 37 173
65 173 65 1 -1 174 -531 384 -1177z m12831 -116 c222 -113 442 -231 489 -261
48 -31 124 -95 175 -147 139 -140 204 -284 205 -449 0 -188 -105 -417 -245
-531 -115 -93 -220 -139 -367 -157 l-88 -12 44 -47 c133 -142 198 -331 177
-515 -11 -95 -27 -147 -68 -230 -209 -417 -634 -543 -1123 -331 -130 56 -821
408 -826 421 -3 6 203 417 457 915 562 1102 675 1329 724 1453 21 54 39 97 40
97 1 0 184 -93 406 -206z m-16010 -1119 c325 -588 630 -1130 677 -1204 47 -74
82 -136 76 -138 -5 -2 -85 -46 -179 -98 l-169 -94 -17 27 c-9 15 -225 403
-480 862 -426 769 -545 992 -580 1093 -19 53 -27 46 -17 -15 22 -135 10 -370
-82 -1518 -62 -790 -94 -1148 -103 -1156 -14 -13 -309 -175 -313 -171 -1 1
-264 475 -584 1052 -577 1043 -628 1132 -723 1273 -27 41 -47 76 -44 78 21 21
344 211 349 206 7 -8 673 -1206 868 -1562 64 -118 141 -270 171 -337 29 -68
57 -123 62 -123 5 0 7 6 4 14 -3 8 -9 90 -12 183 -6 155 1 260 84 1319 50 633
91 1162 91 1175 0 20 25 40 157 121 87 54 160 94 164 90 4 -4 274 -488 600
-1077z m18796 -616 c378 -265 692 -485 697 -490 8 -7 -176 -249 -190 -249 -2
0 -60 44 -127 99 -97 79 -769 570 -871 636 l-24 16 -268 -382 -267 -382 27
-22 c15 -12 218 -149 451 -306 233 -156 424 -286 425 -289 0 -3 -48 -65 -106
-138 -75 -95 -109 -131 -117 -124 -149 118 -852 631 -858 625 -14 -15 -531
-758 -536 -769 -7 -19 992 -694 1061 -717 6 -2 -35 -60 -90 -130 l-101 -126
-659 462 c-362 254 -669 469 -682 478 -22 16 -21 18 684 1025 389 555 740
1066 782 1137 42 70 77 127 78 127 2 0 313 -217 691 -481z m-22233 -324 c45
-312 62 -554 75 -1079 5 -186 13 -342 18 -346 4 -3 329 -82 722 -175 637 -150
815 -188 984 -210 26 -3 47 -9 46 -13 0 -4 -77 -76 -171 -161 l-170 -154 -706
168 c-389 93 -740 176 -780 186 l-73 17 -89 -75 c-52 -44 -87 -80 -83 -87 21
-35 641 -764 719 -846 52 -53 94 -100 94 -103 0 -7 -287 -246 -303 -253 -7 -2
-318 359 -777 908 -421 501 -822 974 -892 1049 l-128 137 146 134 c80 73 149
134 153 136 5 1 158 -176 342 -395 183 -219 359 -428 391 -465 l57 -68 98 82
c54 45 100 83 102 85 6 5 3 124 -10 388 -21 443 -44 700 -85 934 -13 79 -23
145 -22 146 87 79 305 252 309 247 4 -4 19 -88 33 -187z m12011 85 c2073 -126
3931 -616 5725 -1511 1228 -613 2282 -1333 3335 -2279 206 -186 809 -789 995
-995 946 -1053 1666 -2107 2279 -3335 832 -1668 1324 -3431 1480 -5300 38
-456 46 -656 46 -1230 0 -669 -21 -1065 -85 -1645 -288 -2583 -1257 -5033
-2819 -7125 -437 -586 -842 -1052 -1390 -1601 -348 -347 -521 -509 -836 -778
-1418 -1215 -3075 -2159 -4835 -2753 -1132 -382 -2270 -617 -3470 -717 -456
-38 -656 -46 -1230 -46 -669 0 -1065 21 -1645 85 -2583 288 -5033 1257 -7125
2819 -586 437 -1052 842 -1601 1390 -445 445 -723 755 -1085 1206 -1069 1335
-1903 2856 -2446 4465 -512 1517 -768 3084 -768 4700 0 2733 739 5351 2168
7680 462 753 1006 1477 1642 2185 186 206 789 809 995 995 1053 946 2107 1666
3335 2279 1668 832 3429 1324 5300 1480 202 17 330 25 745 45 147 7 1118 -3
1290 -14z m12149 -1352 c370 -383 429 -454 515 -625 70 -140 94 -237 94 -383
1 -137 -13 -206 -63 -317 -68 -149 -237 -338 -376 -421 -258 -153 -565 -161
-850 -22 -144 70 -239 146 -433 347 l-171 176 -62 -59 c-162 -152 -472 -458
-544 -536 l-80 -88 -144 146 -145 145 91 87 c579 554 1728 1673 1793 1747 46
53 86 95 90 93 4 -2 132 -132 285 -290z m-26300 -682 c53 -65 96 -122 96 -126
0 -4 -66 -63 -147 -131 -191 -158 -367 -335 -416 -419 -65 -113 -90 -206 -91
-345 0 -150 23 -245 99 -401 96 -198 255 -382 463 -537 256 -191 462 -275 698
-284 101 -4 134 -2 203 16 158 40 295 123 418 254 114 122 242 303 306 433 17
35 34 64 37 64 3 -1 59 -29 125 -63 116 -60 120 -63 117 -92 -5 -44 -91 -217
-157 -315 -206 -306 -432 -502 -702 -610 -381 -151 -809 -84 -1193 188 -113
81 -335 293 -429 411 -167 210 -275 431 -315 641 -22 115 -21 312 3 425 48
233 174 450 380 656 76 75 401 359 407 355 1 -1 45 -54 98 -120z m27772 -1486
c354 -31 655 -225 882 -568 42 -65 123 -208 180 -320 l103 -202 -137 -65 c-75
-36 -140 -65 -145 -65 -4 0 -53 89 -109 198 -187 361 -301 506 -462 585 -346
171 -799 58 -1224 -306 -191 -163 -327 -350 -392 -539 -31 -90 -36 -118 -40
-224 -5 -148 16 -244 83 -379 76 -153 267 -386 424 -517 l53 -44 -91 -107
c-51 -59 -95 -107 -100 -107 -22 0 -167 115 -252 199 -354 355 -521 750 -481
1136 50 480 389 892 957 1166 192 93 358 142 535 158 47 5 90 9 95 10 6 0 60
-4 121 -9z m-28869 -1447 c587 -339 1128 -647 1201 -684 73 -37 136 -69 139
-72 4 -5 -176 -329 -192 -345 -6 -6 -1710 981 -1825 1057 -63 42 -118 77 -122
79 -4 2 23 -47 61 -108 39 -61 235 -438 436 -836 340 -673 366 -727 356 -753
l-12 -27 -772 -48 c-425 -27 -835 -48 -912 -48 l-140 1 160 -83 c88 -46 471
-263 850 -482 380 -219 739 -421 797 -449 59 -27 107 -53 108 -57 0 -3 -39
-74 -87 -157 l-86 -151 -31 19 c-256 155 -2084 1200 -2203 1260 -90 45 -163
84 -163 88 0 4 35 76 78 160 l77 152 50 6 c141 15 1561 95 1689 95 114 0 147
3 143 13 -2 6 -35 66 -73 132 -38 66 -226 434 -419 817 l-350 696 85 171 c46
94 86 171 87 171 1 0 483 -278 1070 -617z m30689 -726 c56 -95 101 -173 100
-174 0 0 -388 -207 -861 -459 -803 -427 -1012 -533 -1142 -579 -29 -10 -50
-21 -48 -24 3 -3 94 -4 203 -2 185 2 270 -5 1344 -109 631 -60 1152 -110 1157
-110 13 0 201 -313 193 -322 -4 -3 -495 -266 -1092 -583 -1024 -544 -1194
-637 -1298 -708 -24 -16 -46 -26 -49 -23 -17 17 -189 352 -184 358 19 21 1807
961 1910 1004 l124 52 -174 -5 c-166 -5 -225 0 -1339 106 -641 61 -1175 115
-1188 119 -18 5 -46 48 -109 165 -46 87 -83 160 -81 162 2 1 489 261 1083 577
594 316 1139 611 1210 655 72 45 132 79 134 77 3 -3 51 -82 107 -177z m-32835
-2427 c426 -87 696 -397 725 -830 12 -174 -15 -307 -124 -622 l-68 -196 340
-117 c188 -64 394 -130 459 -148 65 -18 118 -36 118 -42 -1 -25 -125 -375
-133 -375 -5 0 -500 169 -1101 376 -1260 435 -1203 416 -1371 459 -70 19 -130
36 -132 38 -3 2 59 188 136 413 185 535 242 653 399 817 203 213 452 288 752
227z m34183 -552 c47 -156 554 -1933 558 -1953 3 -20 -12 -25 -243 -77 l-67
-15 -21 111 c-11 61 -56 248 -99 416 -71 273 -81 305 -98 302 -10 -2 -480
-136 -1044 -297 -921 -264 -1225 -356 -1283 -387 -10 -5 -21 -8 -23 -5 -7 6
-116 388 -112 392 1 2 534 155 1183 341 649 186 1182 339 1184 341 5 4 -153
506 -220 697 -27 77 -48 141 -46 141 4 4 282 73 294 74 7 1 23 -35 37 -81z
m-35544 -2027 c98 -27 135 -41 134 -51 -1 -8 -18 -77 -38 -153 -33 -121 -236
-1068 -231 -1075 2 -3 919 -181 921 -179 1 1 43 241 94 532 51 292 95 533 99
537 5 6 320 -67 329 -76 1 -2 -49 -234 -113 -516 -63 -282 -115 -518 -115
-524 0 -8 166 -44 468 -103 257 -50 468 -90 469 -89 1 0 44 237 96 526 82 449
117 670 117 734 0 12 30 7 152 -25 84 -22 154 -41 155 -43 2 -1 -68 -369 -155
-817 l-159 -814 -24 4 c-13 1 -555 106 -1203 232 -1066 207 -1351 259 -1434
259 -59 0 -64 -39 107 843 89 454 161 828 161 831 0 11 35 4 170 -33z m36374
-1680 c64 -459 114 -836 111 -839 -10 -10 -300 -28 -306 -19 -3 4 -9 65 -13
133 -5 108 -116 1037 -131 1102 -4 17 -11 21 -28 17 -12 -2 -220 -32 -462 -66
-242 -33 -441 -61 -442 -62 -1 -1 36 -238 82 -527 47 -289 85 -532 85 -541 0
-13 -26 -18 -165 -29 -91 -7 -168 -10 -171 -7 -3 3 -32 242 -64 532 -32 290
-60 528 -62 529 -5 4 -936 -129 -942 -134 -8 -8 149 -1020 178 -1151 14 -62
23 -115 21 -118 -8 -7 -299 -29 -307 -22 -6 6 -237 1633 -232 1640 1 1 544 79
1206 172 702 98 1268 182 1358 202 85 18 158 31 161 28 3 -3 59 -381 123 -840z
m-34231 -1443 c4 -62 7 -155 7 -205 l0 -93 -57 0 c-139 0 -2398 -42 -2401 -45
-3 -3 19 -1338 22 -1342 5 -6 2181 38 2299 47 82 7 151 10 153 7 3 -2 7 -95
11 -206 l6 -201 -159 0 c-443 0 -2360 -42 -2469 -54 -66 -7 -123 -10 -126 -7
-9 8 -43 2130 -35 2138 4 4 573 18 1264 30 691 12 1295 27 1342 31 47 5 97 10
111 11 l26 1 6 -112z m34305 -254 l62 -6 -1 -86 c-2 -366 -37 -2033 -42 -2038
-7 -7 -304 10 -312 17 -2 3 2 65 10 139 14 140 41 707 34 714 -8 8 -1968 38
-2217 35 l-253 -4 7 200 c3 110 8 201 9 203 2 2 529 -6 1172 -17 642 -12 1197
-21 1232 -21 l64 0 -7 408 c-3 224 -9 422 -12 440 l-6 33 98 -6 c55 -3 127 -8
162 -11z m-35127 -4354 c103 -20 196 -89 247 -185 24 -45 27 -60 27 -155 0
-98 -2 -109 -30 -158 -39 -71 -112 -136 -183 -162 -77 -29 -205 -25 -271 9
-195 101 -255 341 -130 516 41 57 119 110 189 129 68 18 83 19 151 6z m33404
-5 c78 -21 146 -65 190 -125 49 -67 67 -123 68 -210 1 -97 -34 -180 -103 -244
-73 -69 -121 -89 -220 -94 -70 -3 -95 0 -142 18 -71 26 -144 91 -183 162 -28
49 -30 60 -30 158 0 95 3 110 27 155 48 91 146 166 241 185 64 12 88 11 152
-5z m-1865 -2243 c94 -110 121 -147 586 -792 195 -272 363 -503 372 -512 22
-22 699 -321 867 -384 72 -26 134 -51 138 -54 9 -8 -147 -363 -161 -368 -5 -1
-232 96 -503 217 l-494 220 -740 -69 c-407 -39 -834 -83 -949 -100 -115 -16
-211 -28 -213 -26 -2 2 31 92 74 201 57 147 82 199 97 205 12 5 365 36 786 71
421 34 767 63 769 65 9 8 -763 958 -861 1059 l-108 112 75 167 c41 93 78 173
82 179 7 11 45 -29 183 -191z m-29451 -189 c139 -303 346 -781 370 -855 99
-311 79 -592 -59 -803 -44 -68 -159 -184 -230 -232 -75 -51 -204 -111 -297
-139 -76 -23 -107 -27 -223 -27 -161 -1 -230 14 -370 80 -159 74 -295 192
-399 346 -60 89 -80 129 -182 358 -44 101 -83 187 -85 191 -6 9 -581 -248
-743 -333 -74 -38 -138 -66 -142 -62 -8 10 -159 351 -159 361 0 4 499 229
1108 500 609 271 1170 526 1247 567 77 40 143 74 146 74 3 1 11 -11 18 -26z
m28307 -1999 c110 -86 123 -99 111 -113 -91 -106 -158 -193 -319 -409 -155
-208 -187 -257 -176 -267 17 -16 1652 -1161 1773 -1242 50 -33 124 -79 165
-103 41 -24 77 -45 78 -46 4 -3 -182 -272 -217 -315 l-18 -22 -1000 700 c-550
385 -1005 703 -1012 707 -11 7 -321 -452 -436 -645 l-51 -87 -125 94 c-68 51
-123 99 -121 105 2 7 244 357 539 778 664 948 673 961 679 961 3 0 62 -43 130
-96z m-26671 -924 c386 -552 483 -696 473 -706 -32 -29 -251 -155 -258 -147
-4 4 -40 62 -80 128 -95 158 -610 915 -622 915 -5 0 -180 -119 -388 -265
l-379 -265 321 -441 c268 -369 318 -443 307 -454 -8 -7 -73 -49 -146 -93
l-131 -81 -292 445 c-161 244 -295 446 -299 448 -7 4 -774 -531 -779 -543 -1
-5 120 -179 269 -387 297 -414 360 -499 437 -589 28 -32 49 -62 46 -66 -8 -13
-255 -160 -264 -157 -5 2 -221 306 -480 677 -454 648 -471 674 -453 691 10 9
448 318 973 685 1011 708 1062 744 1179 843 40 34 75 61 77 59 2 -1 222 -315
489 -697z m25701 -2257 c472 -440 891 -827 929 -860 39 -32 90 -74 113 -93
l42 -35 -137 -145 c-74 -80 -139 -145 -144 -145 -4 0 -412 377 -906 837 -494
461 -948 877 -1010 925 -61 48 -112 92 -112 96 -1 5 58 78 130 163 l131 154
52 -47 c29 -27 439 -409 912 -850z m-24309 560 c148 -159 294 -318 325 -354
127 -152 229 -334 269 -485 28 -104 30 -280 6 -374 -57 -211 -227 -415 -437
-520 -114 -57 -185 -74 -320 -74 -130 0 -202 16 -317 69 -40 19 -73 32 -73 30
0 -3 -67 -228 -149 -502 -159 -530 -183 -617 -210 -755 l-16 -87 -163 157
-163 157 191 600 c104 330 190 606 190 613 0 14 -326 367 -339 367 -5 0 -126
-110 -270 -243 -290 -270 -344 -323 -446 -431 l-70 -74 -137 144 c-76 79 -137
149 -137 154 0 6 388 370 861 810 473 440 921 864 996 942 76 78 138 143 139
143 1 0 122 -129 270 -287z m22382 -956 c39 -65 69 -123 66 -128 -8 -13 -101
-75 -260 -174 -177 -110 -273 -182 -367 -277 -121 -122 -181 -266 -159 -385
23 -121 118 -239 237 -295 54 -25 82 -32 158 -36 128 -6 209 12 541 123 296
99 411 125 549 125 200 -1 364 -83 509 -255 72 -86 142 -226 163 -325 19 -88
14 -232 -11 -325 -24 -90 -105 -249 -176 -345 -118 -158 -328 -349 -530 -482
-90 -59 -285 -161 -299 -156 -10 3 -200 220 -200 228 0 3 39 25 87 50 270 137
569 381 683 557 76 115 94 171 95 283 0 84 -3 101 -28 152 -37 75 -121 159
-194 194 -49 23 -74 29 -158 32 -132 5 -244 -21 -511 -122 -225 -84 -320 -111
-449 -126 -221 -25 -411 35 -565 177 -378 350 -324 853 135 1256 82 72 169
133 479 335 99 64 111 69 122 54 6 -9 44 -70 83 -135z m-20627 -727 l96 -55 6
-330 c4 -181 8 -607 9 -946 l2 -616 110 58 c94 49 1520 683 1566 696 23 6 341
-178 335 -194 -3 -7 -310 -482 -682 -1055 -372 -573 -703 -1089 -735 -1147
-32 -59 -62 -112 -66 -119 -6 -10 -50 14 -173 94 -91 58 -167 108 -169 110 -6
6 1090 1687 1165 1787 41 53 74 99 74 102 0 3 -24 -8 -52 -25 -29 -17 -89 -49
-133 -72 -121 -62 -1516 -678 -1534 -678 -9 0 -24 6 -33 14 -16 12 -17 77 -20
917 l-3 904 -66 -115 c-36 -63 -267 -425 -513 -803 -246 -379 -477 -741 -512
-805 -36 -64 -67 -118 -69 -120 -1 -2 -69 40 -150 93 l-147 95 20 33 c10 17
304 470 652 1006 347 535 673 1045 722 1132 l91 159 56 -33 c32 -17 100 -57
153 -87z m18623 -984 c200 -68 359 -221 462 -442 47 -104 66 -191 66 -314 1
-169 -46 -304 -154 -444 -29 -36 -50 -68 -48 -70 3 -2 708 -402 954 -541 22
-12 87 -44 145 -70 58 -26 109 -51 113 -55 7 -6 -319 -221 -358 -237 -9 -3
-247 132 -560 316 -299 177 -547 321 -550 321 -9 0 -408 -231 -422 -244 -9 -8
33 -90 184 -351 107 -187 231 -394 274 -460 44 -66 78 -124 77 -130 -3 -15
-340 -207 -348 -198 -4 4 -278 478 -609 1053 -332 575 -643 1105 -693 1179
-49 74 -85 137 -81 141 15 14 678 394 761 436 105 54 234 101 342 125 130 29
336 22 445 -15z m-2360 -1108 c26 -79 48 -146 49 -151 0 -4 -71 -31 -159 -61
-88 -29 -355 -129 -593 -221 -380 -148 -433 -171 -428 -187 14 -54 341 -848
349 -848 6 0 226 92 491 204 265 113 488 208 498 211 13 5 25 -20 69 -154 29
-88 50 -163 47 -166 -3 -4 -226 -88 -495 -187 -268 -99 -492 -184 -496 -188
-5 -4 328 -856 348 -887 4 -6 972 404 1073 454 62 31 114 54 116 52 11 -13 97
-291 92 -297 -16 -15 -1531 -621 -1537 -614 -4 4 -210 511 -459 1127 -249 616
-484 1186 -523 1268 -38 81 -68 149 -66 150 6 5 1563 635 1571 636 3 1 28 -63
53 -141z m-11887 -299 c108 -26 182 -48 182 -55 0 -6 -112 -402 -249 -880
-137 -478 -255 -894 -262 -924 -20 -83 -18 -291 5 -365 39 -130 112 -237 210
-312 184 -139 463 -205 665 -158 182 43 343 186 436 387 42 93 453 1520 491
1708 15 74 31 139 35 144 9 11 350 -65 356 -80 2 -6 -112 -413 -252 -905 -226
-788 -263 -908 -311 -1008 -68 -144 -121 -217 -226 -317 -178 -167 -382 -244
-647 -244 -247 1 -520 75 -723 196 -96 58 -234 185 -290 267 -146 215 -191
488 -128 777 10 47 113 416 228 820 169 592 262 944 262 996 0 3 8 3 18 0 9
-2 99 -24 200 -47z m9582 -576 c0 -87 -7 -216 -15 -288 -15 -131 -371 -2424
-377 -2430 -2 -2 -79 -23 -171 -48 l-168 -44 -23 36 c-13 20 -315 515 -671
1101 -356 586 -695 1134 -752 1219 -57 84 -102 155 -101 157 2 1 91 25 198 52
l195 49 577 -961 c328 -546 607 -1021 645 -1100 l68 -140 7 170 c5 127 34 372
117 994 126 948 131 994 131 1186 l0 143 53 10 c134 28 244 49 265 50 22 1 22
0 22 -156z m-6455 -169 c15 -4 182 -295 608 -1062 504 -908 626 -1136 700
-1305 10 -23 12 5 13 165 1 153 15 349 68 938 37 410 70 829 73 932 l6 186
176 -5 c97 -3 178 -7 180 -9 6 -5 -237 -2755 -244 -2762 -4 -4 -79 -7 -168 -7
l-161 0 -588 1055 c-323 580 -614 1113 -645 1183 l-58 129 -6 -209 c-4 -121
-34 -515 -73 -946 -36 -405 -68 -809 -72 -897 l-7 -160 -46 5 c-63 8 -262 25
-283 25 -14 0 -18 8 -18 34 0 18 45 548 101 1177 65 738 103 1214 106 1342 l6
197 156 0 c86 0 165 -3 176 -6z m3305 -110 c0 -27 212 -2429 220 -2494 6 -47
18 -125 26 -174 8 -48 14 -90 12 -91 -6 -5 -398 -38 -403 -34 -2 3 -52 549
-110 1214 -91 1046 -117 1302 -151 1496 l-6 35 184 26 c203 28 228 31 228 22z"/>
<path d="M27867 35999 c-109 -215 -197 -392 -195 -394 2 -1 133 -69 291 -150
l288 -147 66 16 c186 47 310 164 376 355 25 72 29 96 25 156 -8 124 -69 222
-192 309 -50 36 -442 247 -457 246 -2 0 -93 -176 -202 -391z"/>
<path d="M27306 34896 c-124 -244 -226 -446 -226 -449 0 -10 428 -226 502
-252 145 -54 308 -43 427 28 163 98 284 346 254 521 -22 129 -97 246 -213 331
-47 35 -488 265 -508 265 -6 0 -112 -200 -236 -444z"/>
<path d="M19455 34329 c-4053 -156 -7820 -2001 -10434 -5109 -2488 -2958
-3667 -6769 -3291 -10630 356 -3640 2098 -7007 4875 -9421 2864 -2488 6599
-3738 10385 -3474 3435 240 6618 1676 9074 4095 1620 1596 2831 3539 3546
5690 972 2924 972 6116 0 9040 -1124 3382 -3476 6231 -6595 7987 -2286 1287
-4926 1924 -7560 1822z m4070 -1231 c25 -184 32 -244 28 -250 -2 -5 -16 -8
-30 -8 -43 0 -252 -50 -361 -86 -208 -69 -358 -159 -498 -298 -99 -99 -173
-209 -225 -335 -33 -79 -82 -261 -93 -345 l-6 -49 33 42 c79 99 229 191 382
232 66 18 109 22 245 23 146 1 174 -2 240 -22 322 -100 509 -381 510 -764 0
-314 -122 -581 -335 -733 -85 -61 -212 -119 -310 -142 -111 -25 -372 -25 -464
1 -376 104 -619 447 -660 932 -18 209 7 511 60 716 140 549 533 921 1129 1067
139 34 268 59 317 60 30 1 32 -1 38 -41z m-4430 1 c245 -42 464 -225 590 -490
84 -180 115 -340 115 -604 0 -365 -56 -631 -187 -888 -178 -348 -462 -575
-893 -711 -127 -40 -460 -108 -460 -94 0 3 -9 69 -20 148 -11 79 -20 145 -20
146 0 0 35 7 78 14 532 85 893 336 1043 725 35 89 73 232 84 313 l7 54 -64
-65 c-119 -118 -285 -193 -482 -218 -177 -21 -318 1 -466 73 -68 33 -102 59
-171 128 -73 72 -94 101 -132 180 -65 134 -78 192 -84 360 -6 168 5 255 48
385 70 209 199 361 390 460 180 93 399 123 624 84z m-1845 -1239 l0 -1230 215
0 215 0 0 -125 0 -125 -665 0 -665 0 0 125 0 125 260 0 260 0 0 1043 0 1043
-297 -27 c-187 -17 -300 -23 -304 -17 -9 14 -21 189 -14 196 9 10 926 220 963
221 l32 1 0 -1230z m3910 0 l0 -1230 215 0 215 0 0 -125 0 -125 -665 0 -665 0
0 125 0 125 260 0 260 0 0 1043 0 1043 -297 -27 c-187 -17 -300 -23 -304 -17
-9 14 -21 189 -14 196 9 10 926 220 963 221 l32 1 0 -1230z m8537 -9032 c-2
-5179 -6 -6911 -15 -7028 -42 -553 -92 -931 -178 -1358 -410 -2044 -1490
-3921 -3059 -5317 -1544 -1375 -3484 -2220 -5530 -2409 -326 -31 -540 -40
-915 -40 -375 0 -589 9 -915 40 -1847 171 -3609 875 -5074 2028 -1813 1426
-3066 3458 -3515 5699 -88 437 -138 822 -178 1362 -9 120 -12 1874 -15 7028
l-4 6867 9701 0 9700 0 -3 -6872z"/>
<path d="M22762 31704 c-108 -29 -194 -90 -257 -184 -129 -192 -132 -483 -6
-677 86 -132 203 -202 351 -211 306 -17 483 143 520 471 33 289 -91 530 -308
597 -77 24 -220 26 -300 4z"/>
<path d="M18825 32823 c-188 -25 -325 -135 -385 -308 -85 -248 -18 -561 149
-693 83 -66 147 -86 276 -86 89 -1 123 4 177 22 209 72 328 260 328 516 -1
351 -238 590 -545 549z"/>
<path d="M10680 22930 l0 -6400 1340 0 1340 0 0 615 0 615 -316 0 -317 0 6
178 c10 293 65 469 219 694 55 81 255 288 278 288 6 0 10 5 10 10 0 6 -92 10
-256 10 l-257 0 6 178 c6 196 28 309 87 451 93 226 262 432 461 563 l79 53 0
342 0 343 -149 0 -148 0 -52 116 c-131 293 -216 616 -263 994 -20 163 -17 670
6 845 97 761 360 1398 815 1975 105 133 424 449 560 553 561 432 1190 667
1945 727 82 6 958 10 2415 10 l2287 0 59 83 c84 115 348 379 474 471 57 42
153 106 215 143 107 64 357 183 385 183 15 0 16 -4 -28 120 -133 384 5 765
341 940 110 57 207 80 342 80 182 0 314 -41 471 -145 88 -58 228 -197 289
-287 l39 -58 1011 0 1011 1 45 67 c56 84 186 215 268 271 89 60 193 107 292
132 113 29 319 23 420 -11 194 -66 344 -196 430 -375 50 -104 70 -199 70 -329
0 -191 -55 -364 -176 -554 -19 -29 -34 -57 -34 -62 0 -6 34 -78 76 -161 291
-582 427 -1110 411 -1604 -6 -189 -22 -305 -62 -466 -80 -315 -252 -643 -501
-954 -109 -137 -464 -493 -645 -647 l-136 -116 -6 -129 c-9 -158 -45 -413 -86
-597 -17 -76 -34 -142 -36 -147 -3 -4 346 -692 775 -1528 l780 -1520 0 -1116
0 -1115 -177 0 c-241 0 -558 17 -694 36 -232 32 -435 100 -596 199 -100 62
-272 233 -342 340 -198 305 -301 707 -333 1305 l-12 220 -528 360 -528 359
-108 -68 c-365 -232 -753 -386 -1113 -443 -65 -10 -79 -16 -83 -33 -3 -11 -53
-263 -111 -560 -58 -297 -108 -549 -111 -561 -5 -20 0 -21 88 -27 175 -12 349
-75 470 -171 158 -126 268 -345 312 -621 14 -90 35 -348 36 -432 l0 -33 2940
0 2940 0 0 6400 0 6400 -9320 0 -9320 0 0 -6400z"/>
<path d="M22497 27780 c-72 -13 -171 -63 -221 -113 -185 -186 -143 -489 111
-800 l56 -68 -116 -227 c-284 -559 -402 -959 -414 -1399 -10 -361 45 -616 202
-938 240 -494 681 -948 1537 -1583 428 -317 720 -523 731 -514 7 5 118 85 247
177 747 536 1078 803 1401 1125 113 113 241 250 284 305 542 681 656 1362 369
2212 -66 196 -150 388 -274 630 l-108 211 74 93 c84 105 152 229 184 337 18
60 22 91 18 171 -3 85 -8 106 -36 163 -92 188 -309 268 -522 193 -157 -55
-312 -210 -414 -412 l-26 -53 -1208 0 -1208 0 -23 48 c-142 295 -415 482 -644
442z m1559 -2282 c-3 -18 -10 -69 -16 -113 -6 -44 -33 -210 -60 -370 -68 -397
-78 -471 -90 -633 -18 -233 7 -433 78 -647 l37 -110 366 -3 366 -2 27 72 c123
340 126 616 11 1256 -19 108 -48 284 -63 390 l-29 192 453 0 c250 0 454 -2
454 -5 0 -20 -48 -93 -96 -144 -99 -108 -233 -158 -396 -148 -85 4 -88 4 -83
-17 11 -47 85 -489 102 -601 13 -89 18 -184 18 -370 0 -222 -3 -263 -23 -364
-29 -142 -77 -288 -142 -429 l-49 -107 -548 -3 -549 -2 -48 106 c-121 267
-176 515 -176 794 0 192 22 360 127 966 l5 32 -88 -5 c-107 -7 -182 7 -265 49
-74 37 -164 124 -202 196 l-28 52 456 0 456 0 -5 -32z m561 -1423 c33 -51 53
-89 47 -94 -29 -27 -285 -211 -294 -211 -8 0 -261 182 -294 211 -4 4 17 46 48
93 l56 86 190 0 190 0 57 -85z"/>
<path d="M21890 26606 c-354 -161 -660 -424 -872 -751 l-58 -90 -2453 -6
c-1822 -4 -2474 -8 -2537 -17 -597 -84 -1022 -234 -1435 -507 -797 -526 -1317
-1399 -1452 -2440 -24 -191 -25 -643 0 -825 32 -240 84 -458 159 -670 l34 -95
52 -3 52 -3 0 260 0 261 165 0 165 0 0 -375 c0 -243 -4 -375 -10 -375 -7 0
-10 -173 -10 -499 l0 -498 -81 -37 c-119 -53 -209 -118 -302 -216 -94 -99
-155 -199 -197 -324 -48 -140 -79 -126 275 -126 l305 0 0 -237 -1 -238 -77
-35 c-264 -120 -448 -331 -521 -597 l-20 -73 310 0 309 0 0 -780 0 -780 550 0
550 0 0 295 0 296 83 -3 82 -3 3 -292 2 -293 125 0 125 0 0 295 0 295 85 0 85
0 0 -295 0 -296 128 3 127 3 3 293 2 292 80 0 80 0 2 -292 3 -293 144 -3 144
-3 -7 140 c-17 338 -74 540 -185 651 -108 108 -261 150 -550 150 -123 0 -123
0 -117 23 3 12 120 315 260 672 l254 650 33 8 c172 43 372 131 519 227 265
174 459 392 600 675 75 151 116 265 148 415 115 530 -28 1083 -388 1498 l-71
82 218 -2 217 -3 54 -80 c73 -110 194 -358 236 -487 166 -503 130 -1064 -99
-1536 -55 -114 -87 -168 -192 -329 l-15 -23 1374 0 1374 0 12 69 c29 168 115
366 222 510 75 100 216 234 313 296 l77 50 -7 768 -6 767 166 0 167 0 0 -468
c0 -258 3 -651 6 -873 l7 -404 -109 -52 c-241 -114 -409 -307 -488 -561 -14
-46 -26 -85 -26 -88 0 -2 140 -4 310 -4 l310 0 0 -236 0 -235 -77 -36 c-263
-121 -459 -343 -523 -593 -6 -25 -13 -53 -16 -62 -5 -17 14 -18 305 -18 l311
0 0 -780 0 -780 153 0 c83 0 338 3 565 7 l412 6 0 289 0 288 80 0 80 0 0 -290
0 -290 130 0 130 0 0 290 0 290 85 0 85 0 0 -290 0 -290 125 0 125 0 2 288 3
287 83 3 82 3 0 -291 0 -290 131 0 131 0 -6 113 c-21 358 -75 552 -184 663
-61 61 -128 99 -229 125 -65 18 -118 22 -320 26 -134 3 -243 8 -243 11 0 4 97
496 216 1094 l216 1088 52 22 c489 207 860 632 1000 1148 49 180 58 279 57
598 l-1 292 166 0 166 0 -5 -352 c-4 -375 -8 -415 -63 -626 -14 -53 -48 -155
-76 -225 -183 -458 -522 -835 -959 -1066 -44 -23 -47 -27 -57 -85 -6 -33 -10
-61 -9 -63 7 -6 239 58 351 97 712 247 1374 843 1817 1635 179 321 317 674
408 1042 38 156 86 422 79 443 -2 6 -71 -40 -153 -101 -295 -218 -959 -694
-966 -692 -16 5 -742 532 -1004 728 -446 334 -689 538 -950 800 -311 310 -497
561 -646 870 -152 316 -212 580 -212 940 -1 281 31 491 118 795 62 215 130
389 291 738 13 28 23 52 21 51 -1 0 -45 -20 -97 -43z"/>
<path d="M25521 21358 c-61 -155 -213 -455 -313 -621 -199 -328 -388 -568
-666 -846 -150 -149 -201 -206 -191 -212 8 -4 258 -174 556 -376 l542 -368 1
-150 c2 -695 144 -1205 411 -1476 60 -61 207 -169 230 -169 5 0 9 99 9 220 l0
220 80 0 80 0 0 -255 0 -254 42 -12 c69 -18 171 -39 196 -39 l22 0 0 280 0
281 83 -3 82 -3 3 -286 2 -286 83 -6 c45 -4 101 -7 125 -7 l42 0 0 910 0 911
-682 1329 c-376 732 -685 1330 -688 1330 -3 0 -25 -51 -49 -112z"/>
<path d="M16665 18879 c-164 -137 -390 -265 -570 -321 -55 -17 -101 -32 -103
-34 -5 -3 -281 -714 -284 -731 -2 -11 16 -20 72 -34 108 -27 244 -97 318 -164
203 -184 298 -458 319 -920 l6 -145 589 0 588 0 0 295 0 296 83 -3 82 -3 3
-292 2 -293 125 0 125 0 0 295 0 295 85 0 85 0 0 -295 0 -295 124 0 c69 0 127
3 129 8 2 4 0 72 -4 152 -21 411 -107 617 -294 709 -101 50 -174 61 -433 68
l-232 6 2 670 3 670 101 17 c110 19 216 48 285 80 l44 20 -595 0 -595 -1 -60
-50z"/>
<path d="M18425 18868 c-144 -123 -354 -244 -529 -303 l-86 -30 0 -367 0 -367
58 -5 c185 -18 246 -28 317 -51 240 -78 399 -240 495 -503 50 -138 90 -399 90
-592 0 -49 3 -95 6 -104 6 -14 86 -16 805 -16 l799 0 0 615 0 615 -315 0 -315
0 0 144 c0 281 60 489 203 704 66 99 172 216 257 285 l45 37 -880 -1 -880 0
-70 -61z"/>
<path d="M10680 16118 c0 -111 16 -384 35 -593 168 -1854 891 -3621 2070
-5060 373 -455 855 -937 1310 -1310 2156 -1767 4997 -2476 7735 -1929 1620
324 3097 1060 4360 2172 316 278 743 723 1025 1067 1285 1567 2027 3526 2101
5548 l7 187 -9321 0 -9322 0 0 -82z m7125 -1058 c875 -58 1655 -253 2127 -532
l67 -39 108 60 c490 274 1246 458 2113 512 243 15 872 6 1075 -15 329 -35 679
-99 863 -157 l32 -11 0 -2799 c0 -1539 -4 -2799 -8 -2799 -5 0 -86 16 -180 35
-214 43 -454 79 -682 102 -246 25 -852 25 -1100 0 -724 -73 -1418 -250 -2092
-533 l-128 -54 -130 55 c-672 283 -1365 459 -2090 532 -248 25 -853 25 -1100
0 -228 -23 -468 -59 -682 -102 -94 -19 -175 -35 -180 -35 -4 0 -8 1260 -8
2799 l0 2799 33 11 c235 75 722 153 1087 174 135 8 739 6 875 -3z"/>
<path d="M17038 14739 c-268 -12 -495 -38 -755 -86 l-143 -27 0 -2473 c0
-1360 4 -2473 9 -2473 4 0 66 9 137 20 601 91 1270 92 1899 4 523 -73 1139
-236 1584 -418 36 -14 66 -26 68 -26 2 0 3 1111 3 2470 l0 2469 -97 58 c-312
183 -815 334 -1393 417 -435 63 -877 85 -1312 65z m757 -1019 c563 -36 1042
-120 1513 -266 l112 -35 0 -119 0 -119 -82 30 c-303 111 -765 210 -1203 258
-318 35 -526 44 -904 38 -319 -6 -439 -12 -593 -33 l-48 -6 0 110 0 110 28 6
c24 5 202 20 332 29 116 8 702 6 845 -3z m-10 -900 c556 -36 1069 -124 1488
-257 l147 -46 0 -118 0 -118 -78 28 c-111 41 -373 115 -532 150 -335 74 -647
116 -1050 142 -232 15 -829 6 -1020 -15 -74 -9 -138 -16 -142 -16 -5 0 -8 49
-8 109 l0 109 28 6 c15 3 90 10 167 16 77 6 158 12 180 13 102 9 677 6 820 -3z
m-10 -900 c574 -37 1072 -123 1513 -262 l132 -41 0 -118 0 -118 -146 49 c-309
104 -673 182 -1064 229 -327 40 -447 46 -870 46 -376 -1 -508 -7 -702 -31
l-48 -7 0 111 0 110 33 5 c27 5 200 20 357 30 117 8 653 6 795 -3z m-5 -900
c563 -35 1079 -124 1518 -262 l132 -41 0 -120 c0 -110 -1 -119 -17 -112 -291
119 -843 239 -1323 289 -396 41 -988 46 -1325 12 -82 -9 -153 -16 -157 -16 -5
0 -8 49 -8 109 l0 108 38 6 c32 5 220 21 362 30 116 8 632 6 780 -3z"/>
<path d="M22338 14739 c-848 -37 -1642 -224 -2100 -494 l-78 -45 0 -2471 c0
-2349 1 -2471 18 -2464 1137 457 2381 610 3536 435 71 -11 133 -20 137 -20 5
0 9 1113 9 2473 l0 2473 -142 27 c-429 81 -874 108 -1380 86z m902 -1028 c58
-6 120 -14 138 -17 l32 -5 0 -110 0 -111 -47 6 c-155 21 -275 27 -594 33 -379
6 -588 -3 -904 -38 -445 -49 -904 -148 -1202 -258 l-83 -30 0 119 0 119 113
35 c457 142 934 227 1487 266 165 11 927 5 1060 -9z m-5 -900 c61 -6 125 -14
143 -17 l32 -5 0 -109 c0 -61 -3 -110 -7 -110 -5 1 -71 8 -148 16 -325 34
-944 29 -1340 -12 -455 -46 -934 -147 -1252 -264 l-83 -30 0 118 0 119 148 46
c407 129 914 218 1462 257 163 11 903 5 1045 -9z m-15 -900 c58 -6 124 -13
148 -16 l42 -6 0 -110 c0 -81 -3 -109 -12 -109 -7 1 -76 8 -153 16 -199 21
-757 29 -990 15 -589 -37 -1100 -127 -1529 -271 l-146 -49 0 118 0 118 133 41
c429 135 919 221 1487 262 160 11 882 5 1020 -9z m-5 -900 c61 -6 129 -14 153
-17 l42 -5 0 -110 c0 -60 -3 -109 -7 -109 -5 0 -75 7 -158 16 -337 34 -929 29
-1325 -12 -480 -50 -1032 -170 -1322 -289 -17 -7 -18 2 -18 112 l0 120 133 41
c425 134 941 224 1492 262 166 11 866 5 1010 -9z"/>
<path d="M32310 32674 l-430 -416 152 -157 c187 -192 223 -222 320 -270 220
-111 458 -61 658 139 162 162 221 371 160 565 -45 142 -103 227 -285 415 -71
74 -133 136 -137 138 -4 2 -201 -184 -438 -414z"/>
<path d="M3067 26136 c-166 -48 -320 -193 -399 -374 -42 -97 -138 -386 -131
-392 10 -9 1125 -392 1129 -388 1 2 36 102 77 224 105 310 115 398 62 555 -54
162 -186 284 -382 352 -74 25 -106 31 -198 33 -72 2 -126 -1 -158 -10z"/>
<path d="M4801 13074 c-299 -134 -545 -245 -547 -247 -5 -5 178 -407 210 -462
70 -119 221 -228 353 -256 82 -16 212 -6 308 25 200 64 346 199 407 373 34 99
32 263 -5 385 -23 77 -160 403 -176 419 -3 3 -251 -103 -550 -237z"/>
<path d="M7930 8620 c-195 -182 -374 -350 -398 -374 l-43 -42 170 -181 c117
-124 192 -195 241 -228 233 -155 480 -126 687 80 84 84 137 183 155 287 15 90
-7 195 -66 313 -51 102 -127 200 -283 363 l-108 113 -355 -331z"/>
<path d="M28422 6189 c-77 -13 -191 -53 -280 -99 -125 -64 -327 -186 -325
-196 1 -5 121 -216 268 -469 169 -292 271 -459 280 -459 8 1 103 53 211 115
244 141 332 217 393 339 73 146 76 278 12 432 -76 181 -207 299 -370 334 -73
15 -111 16 -189 3z"/>
<path d="M36450 31380 c22 -33 43 -60 46 -60 2 0 -14 27 -36 60 -22 33 -43 60
-46 60 -2 0 14 -27 36 -60z"/>
<path d="M36621 31128 c90 -136 139 -203 114 -158 -20 36 -206 310 -210 310
-3 0 40 -69 96 -152z"/>
<path d="M36830 30810 c6 -11 13 -20 16 -20 2 0 0 9 -6 20 -6 11 -13 20 -16
20 -2 0 0 -9 6 -20z"/>
<path d="M36900 30700 c6 -11 13 -20 16 -20 2 0 0 9 -6 20 -6 11 -13 20 -16
20 -2 0 0 -9 6 -20z"/>
<path d="M1611 27904 c-23 -53 -40 -98 -38 -100 2 -2 22 40 45 93 23 53 40 98
38 100 -2 2 -22 -40 -45 -93z"/>
<path d="M1541 27739 c-12 -29 -20 -54 -18 -56 2 -2 14 20 26 48 12 29 20 54
18 56 -2 2 -14 -20 -26 -48z"/>
<path d="M1491 27619 c-12 -29 -20 -54 -18 -56 2 -2 14 20 26 48 12 29 20 54
18 56 -2 2 -14 -20 -26 -48z"/>
<path d="M1456 27535 c-9 -26 -7 -32 5 -12 6 10 9 21 6 23 -2 3 -7 -2 -11 -11z"/>
<path d="M1436 27485 c-9 -26 -7 -32 5 -12 6 10 9 21 6 23 -2 3 -7 -2 -11 -11z"/>
<path d="M1416 27435 c-9 -26 -7 -32 5 -12 6 10 9 21 6 23 -2 3 -7 -2 -11 -11z"/>
<path d="M1396 27385 c-9 -26 -7 -32 5 -12 6 10 9 21 6 23 -2 3 -7 -2 -11 -11z"/>
<path d="M1376 27335 c-9 -26 -7 -32 5 -12 6 10 9 21 6 23 -2 3 -7 -2 -11 -11z"/>
<path d="M1346 27255 c-9 -26 -7 -32 5 -12 6 10 9 21 6 23 -2 3 -7 -2 -11 -11z"/>
<path d="M1326 27205 c-9 -26 -7 -32 5 -12 6 10 9 21 6 23 -2 3 -7 -2 -11 -11z"/>
<path d="M1301 27139 c-6 -18 -9 -34 -7 -36 2 -2 9 10 15 28 6 18 9 34 7 36
-2 2 -9 -10 -15 -28z"/>
<path d="M1276 27075 c-9 -26 -7 -32 5 -12 6 10 9 21 6 23 -2 3 -7 -2 -11 -11z"/>
<path d="M1246 26995 c-9 -26 -7 -32 5 -12 6 10 9 21 6 23 -2 3 -7 -2 -11 -11z"/>
<path d="M1206 26885 c-9 -26 -7 -32 5 -12 6 10 9 21 6 23 -2 3 -7 -2 -11 -11z"/>
<path d="M1166 26775 c-9 -26 -7 -32 5 -12 6 10 9 21 6 23 -2 3 -7 -2 -11 -11z"/>
<path d="M1106 26605 c-9 -26 -7 -32 5 -12 6 10 9 21 6 23 -2 3 -7 -2 -11 -11z"/>
<path d="M9870 2746 c0 -3 9 -10 20 -16 11 -6 20 -8 20 -6 0 3 -9 10 -20 16
-11 6 -20 8 -20 6z"/>
<path d="M9990 2676 c0 -3 9 -10 20 -16 11 -6 20 -8 20 -6 0 3 -9 10 -20 16
-11 6 -20 8 -20 6z"/>
<path d="M10060 2636 c0 -3 9 -10 20 -16 11 -6 20 -8 20 -6 0 3 -9 10 -20 16
-11 6 -20 8 -20 6z"/>
<path d="M10130 2596 c0 -3 9 -10 20 -16 11 -6 20 -8 20 -6 0 3 -9 10 -20 16
-11 6 -20 8 -20 6z"/>
<path d="M10200 2556 c0 -3 9 -10 20 -16 11 -6 20 -8 20 -6 0 3 -9 10 -20 16
-11 6 -20 8 -20 6z"/>
<path d="M10290 2506 c0 -3 9 -10 20 -16 11 -6 20 -8 20 -6 0 3 -9 10 -20 16
-11 6 -20 8 -20 6z"/>
<path d="M10380 2456 c0 -3 14 -12 30 -21 17 -9 30 -13 30 -11 0 3 -13 12 -30
21 -16 9 -30 13 -30 11z"/>
<path d="M10490 2396 c0 -3 14 -12 30 -21 17 -9 30 -13 30 -11 0 3 -13 12 -30
21 -16 9 -30 13 -30 11z"/>
<path d="M10640 2316 c0 -3 14 -12 30 -21 17 -9 30 -13 30 -11 0 3 -13 12 -30
21 -16 9 -30 13 -30 11z"/>
<path d="M10850 2205 c0 -7 441 -227 446 -223 1 2 -98 54 -221 116 -124 61
-225 110 -225 107z"/>
<path d="M11470 1895 c25 -13 50 -24 55 -24 6 0 -10 11 -35 24 -25 13 -49 24
-55 24 -5 0 10 -11 35 -24z"/>
<path d="M11620 1825 c14 -8 30 -14 35 -14 6 0 -1 6 -15 14 -14 8 -29 14 -35
14 -5 0 1 -6 15 -14z"/>
<path d="M11740 1770 c19 -11 40 -19 45 -19 6 0 -6 8 -25 19 -19 11 -39 19
-45 19 -5 0 6 -8 25 -19z"/>
<path d="M11840 1725 c14 -8 30 -14 35 -14 6 0 -1 6 -15 14 -14 8 -29 14 -35
14 -5 0 1 -6 15 -14z"/>
<path d="M11930 1685 c14 -8 30 -14 35 -14 6 0 -1 6 -15 14 -14 8 -29 14 -35
14 -5 0 1 -6 15 -14z"/>
<path d="M12010 1650 c8 -5 20 -10 25 -10 6 0 3 5 -5 10 -8 5 -19 10 -25 10
-5 0 -3 -5 5 -10z"/>
<path d="M12080 1620 c8 -5 20 -10 25 -10 6 0 3 5 -5 10 -8 5 -19 10 -25 10
-5 0 -3 -5 5 -10z"/>
<path d="M12150 1590 c8 -5 20 -10 25 -10 6 0 3 5 -5 10 -8 5 -19 10 -25 10
-5 0 -3 -5 5 -10z"/>
<path d="M12220 1560 c8 -5 20 -10 25 -10 6 0 3 5 -5 10 -8 5 -19 10 -25 10
-5 0 -3 -5 5 -10z"/>
<path d="M12280 1535 c14 -8 30 -14 35 -14 6 0 -1 6 -15 14 -14 8 -29 14 -35
14 -5 0 1 -6 15 -14z"/>
<path d="M12340 1510 c8 -5 20 -10 25 -10 6 0 3 5 -5 10 -8 5 -19 10 -25 10
-5 0 -3 -5 5 -10z"/>
<path d="M12400 1485 c14 -8 30 -14 35 -14 6 0 -1 6 -15 14 -14 8 -29 14 -35
14 -5 0 1 -6 15 -14z"/>
<path d="M12460 1460 c8 -5 20 -10 25 -10 6 0 3 5 -5 10 -8 5 -19 10 -25 10
-5 0 -3 -5 5 -10z"/>
<path d="M12510 1440 c8 -5 20 -10 25 -10 6 0 3 5 -5 10 -8 5 -19 10 -25 10
-5 0 -3 -5 5 -10z"/>
<path d="M12560 1420 c8 -5 20 -10 25 -10 6 0 3 5 -5 10 -8 5 -19 10 -25 10
-5 0 -3 -5 5 -10z"/>
<path d="M12610 1400 c8 -5 20 -10 25 -10 6 0 3 5 -5 10 -8 5 -19 10 -25 10
-5 0 -3 -5 5 -10z"/>
<path d="M12660 1380 c8 -5 20 -10 25 -10 6 0 3 5 -5 10 -8 5 -19 10 -25 10
-5 0 -3 -5 5 -10z"/>
<path d="M12710 1362 c8 -5 26 -13 40 -16 17 -5 20 -4 10 2 -8 5 -26 13 -40
16 -17 5 -20 4 -10 -2z"/>
<path d="M12790 1330 c8 -5 20 -10 25 -10 6 0 3 5 -5 10 -8 5 -19 10 -25 10
-5 0 -3 -5 5 -10z"/>
<path d="M12840 1312 c8 -5 26 -13 40 -16 17 -5 20 -4 10 2 -8 5 -26 13 -40
16 -17 5 -20 4 -10 -2z"/>
<path d="M12920 1280 c8 -5 20 -10 25 -10 6 0 3 5 -5 10 -8 5 -19 10 -25 10
-5 0 -3 -5 5 -10z"/>
<path d="M13000 1250 c8 -5 20 -10 25 -10 6 0 3 5 -5 10 -8 5 -19 10 -25 10
-5 0 -3 -5 5 -10z"/>
<path d="M13080 1222 c8 -5 26 -13 40 -16 17 -5 20 -4 10 2 -8 5 -26 13 -40
16 -17 5 -20 4 -10 -2z"/>
<path d="M13190 1182 c8 -5 26 -13 40 -16 17 -5 20 -4 10 2 -8 5 -26 13 -40
16 -17 5 -20 4 -10 -2z"/>
<path d="M13290 1147 c0 -7 122 -48 127 -43 3 2 -20 12 -49 21 -29 10 -59 20
-65 23 -7 2 -13 2 -13 -1z"/>
<path d="M13521 1066 c8 -8 300 -106 314 -105 5 0 -55 23 -135 50 -178 61
-186 63 -179 55z"/>
<path d="M13985 910 c28 -10 57 -18 65 -18 8 0 -7 8 -35 18 -27 10 -57 18 -65
18 -8 0 8 -8 35 -18z"/>
<path d="M14130 865 c19 -7 42 -13 50 -13 8 0 -1 6 -20 13 -19 7 -42 13 -50
13 -8 0 1 -6 20 -13z"/>
<path d="M14230 835 c19 -7 42 -13 50 -13 8 0 -1 6 -20 13 -19 7 -42 13 -50
13 -8 0 1 -6 20 -13z"/>
<path d="M14315 810 c11 -5 27 -9 35 -9 9 0 8 4 -5 9 -11 5 -27 9 -35 9 -9 0
-8 -4 5 -9z"/>
<path d="M14415 780 c11 -5 27 -9 35 -9 9 0 8 4 -5 9 -11 5 -27 9 -35 9 -9 0
-8 -4 5 -9z"/>
<path d="M14485 760 c11 -5 27 -9 35 -9 9 0 8 4 -5 9 -11 5 -27 9 -35 9 -9 0
-8 -4 5 -9z"/>
<path d="M14555 740 c11 -5 27 -9 35 -9 9 0 8 4 -5 9 -11 5 -27 9 -35 9 -9 0
-8 -4 5 -9z"/>
<path d="M14618 723 c7 -3 16 -2 19 1 4 3 -2 6 -13 5 -11 0 -14 -3 -6 -6z"/>
<path d="M14665 710 c11 -5 27 -9 35 -9 9 0 8 4 -5 9 -11 5 -27 9 -35 9 -9 0
-8 -4 5 -9z"/>
<path d="M14735 691 c11 -4 36 -11 55 -15 24 -4 29 -3 15 3 -11 4 -36 11 -55
15 -24 4 -29 3 -15 -3z"/>
<path d="M25218 683 c7 -3 16 -2 19 1 4 3 -2 6 -13 5 -11 0 -14 -3 -6 -6z"/>
<path d="M14838 663 c7 -3 16 -2 19 1 4 3 -2 6 -13 5 -11 0 -14 -3 -6 -6z"/>
<path d="M14885 651 c11 -4 36 -11 55 -15 24 -4 29 -3 15 3 -11 4 -36 11 -55
15 -24 4 -29 3 -15 -3z"/>
<path d="M25068 643 c7 -3 16 -2 19 1 4 3 -2 6 -13 5 -11 0 -14 -3 -6 -6z"/>
<path d="M14988 623 c7 -3 16 -2 19 1 4 3 -2 6 -13 5 -11 0 -14 -3 -6 -6z"/>
<path d="M15028 613 c7 -3 16 -2 19 1 4 3 -2 6 -13 5 -11 0 -14 -3 -6 -6z"/>
<path d="M15068 603 c7 -3 16 -2 19 1 4 3 -2 6 -13 5 -11 0 -14 -3 -6 -6z"/>
<path d="M15108 593 c7 -3 16 -2 19 1 4 3 -2 6 -13 5 -11 0 -14 -3 -6 -6z"/>
<path d="M15148 583 c7 -3 16 -2 19 1 4 3 -2 6 -13 5 -11 0 -14 -3 -6 -6z"/>
<path d="M15188 573 c7 -3 16 -2 19 1 4 3 -2 6 -13 5 -11 0 -14 -3 -6 -6z"/>
<path d="M15228 563 c7 -3 16 -2 19 1 4 3 -2 6 -13 5 -11 0 -14 -3 -6 -6z"/>
<path d="M15268 553 c7 -3 16 -2 19 1 4 3 -2 6 -13 5 -11 0 -14 -3 -6 -6z"/>
<path d="M15345 534 c28 -7 57 -13 65 -13 8 0 -7 7 -35 15 -27 7 -57 13 -65
13 -8 0 8 -7 35 -15z"/>
<path d="M24668 543 c7 -3 16 -2 19 1 4 3 -2 6 -13 5 -11 0 -14 -3 -6 -6z"/>
<path d="M24628 533 c7 -3 16 -2 19 1 4 3 -2 6 -13 5 -11 0 -14 -3 -6 -6z"/>
<path d="M15438 513 c7 -3 16 -2 19 1 4 3 -2 6 -13 5 -11 0 -14 -3 -6 -6z"/>
<path d="M15490 500 c14 -4 34 -8 45 -8 16 0 15 2 -5 8 -14 4 -34 8 -45 8 -16
0 -15 -2 5 -8z"/>
<path d="M24498 503 c7 -3 16 -2 19 1 4 3 -2 6 -13 5 -11 0 -14 -3 -6 -6z"/>
<path d="M24458 493 c7 -3 16 -2 19 1 4 3 -2 6 -13 5 -11 0 -14 -3 -6 -6z"/>
<path d="M15580 480 c14 -4 34 -8 45 -8 16 0 15 2 -5 8 -14 4 -34 8 -45 8 -16
0 -15 -2 5 -8z"/>
<path d="M24368 473 c7 -3 16 -2 19 1 4 3 -2 6 -13 5 -11 0 -14 -3 -6 -6z"/>
<path d="M15658 463 c7 -3 16 -2 19 1 4 3 -2 6 -13 5 -11 0 -14 -3 -6 -6z"/>
<path d="M15698 453 c6 -2 18 -2 25 0 6 3 1 5 -13 5 -14 0 -19 -2 -12 -5z"/>
<path d="M24278 453 c7 -3 16 -2 19 1 4 3 -2 6 -13 5 -11 0 -14 -3 -6 -6z"/>
<path d="M15760 440 c14 -4 34 -8 45 -8 16 0 15 2 -5 8 -14 4 -34 8 -45 8 -16
0 -15 -2 5 -8z"/>
<path d="M24228 443 c7 -3 16 -2 19 1 4 3 -2 6 -13 5 -11 0 -14 -3 -6 -6z"/>
<path d="M24188 433 c7 -3 16 -2 19 1 4 3 -2 6 -13 5 -11 0 -14 -3 -6 -6z"/>
<path d="M15838 423 c6 -2 18 -2 25 0 6 3 1 5 -13 5 -14 0 -19 -2 -12 -5z"/>
<path d="M24138 423 c7 -3 16 -2 19 1 4 3 -2 6 -13 5 -11 0 -14 -3 -6 -6z"/>
<path d="M15888 413 c6 -2 18 -2 25 0 6 3 1 5 -13 5 -14 0 -19 -2 -12 -5z"/>
<path d="M24088 413 c7 -3 16 -2 19 1 4 3 -2 6 -13 5 -11 0 -14 -3 -6 -6z"/>
<path d="M15931 406 c6 -6 210 -46 228 -45 9 1 -33 12 -94 25 -108 23 -142 28
-134 20z"/>
<path d="M24038 403 c7 -3 16 -2 19 1 4 3 -2 6 -13 5 -11 0 -14 -3 -6 -6z"/>
<path d="M23988 393 c6 -2 18 -2 25 0 6 3 1 5 -13 5 -14 0 -19 -2 -12 -5z"/>
<path d="M23938 383 c6 -2 18 -2 25 0 6 3 1 5 -13 5 -14 0 -19 -2 -12 -5z"/>
<path d="M23888 373 c6 -2 18 -2 25 0 6 3 1 5 -13 5 -14 0 -19 -2 -12 -5z"/>
<path d="M23838 363 c7 -3 16 -2 19 1 4 3 -2 6 -13 5 -11 0 -14 -3 -6 -6z"/>
<path d="M16188 353 c6 -2 18 -2 25 0 6 3 1 5 -13 5 -14 0 -19 -2 -12 -5z"/>
<path d="M23788 353 c7 -3 16 -2 19 1 4 3 -2 6 -13 5 -11 0 -14 -3 -6 -6z"/>
<path d="M16238 343 c6 -2 18 -2 25 0 6 3 1 5 -13 5 -14 0 -19 -2 -12 -5z"/>
<path d="M23738 343 c7 -3 16 -2 19 1 4 3 -2 6 -13 5 -11 0 -14 -3 -6 -6z"/>
<path d="M16305 330 c17 -4 41 -8 55 -8 22 0 22 1 -5 8 -16 4 -41 8 -55 8 -22
0 -22 -1 5 -8z"/>
<path d="M23678 333 c6 -2 18 -2 25 0 6 3 1 5 -13 5 -14 0 -19 -2 -12 -5z"/>
<path d="M23628 323 c7 -3 16 -2 19 1 4 3 -2 6 -13 5 -11 0 -14 -3 -6 -6z"/>
<path d="M16398 313 c6 -2 18 -2 25 0 6 3 1 5 -13 5 -14 0 -19 -2 -12 -5z"/>
<path d="M23578 313 c7 -3 16 -2 19 1 4 3 -2 6 -13 5 -11 0 -14 -3 -6 -6z"/>
<path d="M16453 303 c9 -2 23 -2 30 0 6 3 -1 5 -18 5 -16 0 -22 -2 -12 -5z"/>
<path d="M23518 303 c6 -2 18 -2 25 0 6 3 1 5 -13 5 -14 0 -19 -2 -12 -5z"/>
<path d="M16513 293 c9 -2 23 -2 30 0 6 3 -1 5 -18 5 -16 0 -22 -2 -12 -5z"/>
<path d="M23458 293 c6 -2 18 -2 25 0 6 3 1 5 -13 5 -14 0 -19 -2 -12 -5z"/>
<path d="M16585 280 c17 -4 41 -8 55 -8 22 0 22 1 -5 8 -16 4 -41 8 -55 8 -22
0 -22 -1 5 -8z"/>
<path d="M23398 283 c6 -2 18 -2 25 0 6 3 1 5 -13 5 -14 0 -19 -2 -12 -5z"/>
<path d="M23348 273 c7 -3 16 -2 19 1 4 3 -2 6 -13 5 -11 0 -14 -3 -6 -6z"/>
<path d="M16683 263 c9 -2 23 -2 30 0 6 3 -1 5 -18 5 -16 0 -22 -2 -12 -5z"/>
<path d="M23288 263 c6 -2 18 -2 25 0 6 3 1 5 -13 5 -14 0 -19 -2 -12 -5z"/>
<path d="M16743 253 c9 -2 25 -2 35 0 9 3 1 5 -18 5 -19 0 -27 -2 -17 -5z"/>
<path d="M23223 253 c9 -2 23 -2 30 0 6 3 -1 5 -18 5 -16 0 -22 -2 -12 -5z"/>
<path d="M16813 243 c9 -2 23 -2 30 0 6 3 -1 5 -18 5 -16 0 -22 -2 -12 -5z"/>
<path d="M23158 243 c6 -2 18 -2 25 0 6 3 1 5 -13 5 -14 0 -19 -2 -12 -5z"/>
<path d="M16873 233 c9 -2 23 -2 30 0 6 3 -1 5 -18 5 -16 0 -22 -2 -12 -5z"/>
<path d="M23098 233 c6 -2 18 -2 25 0 6 3 1 5 -13 5 -14 0 -19 -2 -12 -5z"/>
<path d="M16933 223 c9 -2 25 -2 35 0 9 3 1 5 -18 5 -19 0 -27 -2 -17 -5z"/>
<path d="M23033 223 c9 -2 23 -2 30 0 6 3 -1 5 -18 5 -16 0 -22 -2 -12 -5z"/>
<path d="M17003 213 c9 -2 23 -2 30 0 6 3 -1 5 -18 5 -16 0 -22 -2 -12 -5z"/>
<path d="M22968 213 c6 -2 18 -2 25 0 6 3 1 5 -13 5 -14 0 -19 -2 -12 -5z"/>
<path d="M17073 203 c9 -2 23 -2 30 0 6 3 -1 5 -18 5 -16 0 -22 -2 -12 -5z"/>
<path d="M22898 203 c6 -2 18 -2 25 0 6 3 1 5 -13 5 -14 0 -19 -2 -12 -5z"/>
<path d="M17133 193 c9 -2 25 -2 35 0 9 3 1 5 -18 5 -19 0 -27 -2 -17 -5z"/>
<path d="M22833 193 c9 -2 23 -2 30 0 6 3 -1 5 -18 5 -16 0 -22 -2 -12 -5z"/>
<path d="M17203 183 c9 -2 25 -2 35 0 9 3 1 5 -18 5 -19 0 -27 -2 -17 -5z"/>
<path d="M22763 183 c9 -2 23 -2 30 0 6 3 -1 5 -18 5 -16 0 -22 -2 -12 -5z"/>
<path d="M17283 173 c9 -2 25 -2 35 0 9 3 1 5 -18 5 -19 0 -27 -2 -17 -5z"/>
<path d="M22683 173 c9 -2 23 -2 30 0 6 3 -1 5 -18 5 -16 0 -22 -2 -12 -5z"/>
<path d="M17353 163 c9 -2 25 -2 35 0 9 3 1 5 -18 5 -19 0 -27 -2 -17 -5z"/>
<path d="M22613 163 c9 -2 23 -2 30 0 6 3 -1 5 -18 5 -16 0 -22 -2 -12 -5z"/>
<path d="M17433 153 c9 -2 25 -2 35 0 9 3 1 5 -18 5 -19 0 -27 -2 -17 -5z"/>
<path d="M22533 153 c9 -2 23 -2 30 0 6 3 -1 5 -18 5 -16 0 -22 -2 -12 -5z"/>
<path d="M17513 143 c9 -2 25 -2 35 0 9 3 1 5 -18 5 -19 0 -27 -2 -17 -5z"/>
<path d="M22453 143 c9 -2 23 -2 30 0 6 3 -1 5 -18 5 -16 0 -22 -2 -12 -5z"/>
<path d="M17598 133 c12 -2 30 -2 40 0 9 3 -1 5 -23 4 -22 0 -30 -2 -17 -4z"/>
<path d="M22363 133 c9 -2 25 -2 35 0 9 3 1 5 -18 5 -19 0 -27 -2 -17 -5z"/>
<path d="M17678 123 c12 -2 30 -2 40 0 9 3 -1 5 -23 4 -22 0 -30 -2 -17 -4z"/>
<path d="M22283 123 c9 -2 25 -2 35 0 9 3 1 5 -18 5 -19 0 -27 -2 -17 -5z"/>
<path d="M17768 113 c12 -2 30 -2 40 0 9 3 -1 5 -23 4 -22 0 -30 -2 -17 -4z"/>
<path d="M22193 113 c9 -2 25 -2 35 0 9 3 1 5 -18 5 -19 0 -27 -2 -17 -5z"/>
<path d="M17858 103 c12 -2 32 -2 45 0 12 2 2 4 -23 4 -25 0 -35 -2 -22 -4z"/>
<path d="M22098 103 c12 -2 30 -2 40 0 9 3 -1 5 -23 4 -22 0 -30 -2 -17 -4z"/>
<path d="M17953 93 c15 -2 37 -2 50 0 12 2 0 4 -28 4 -27 0 -38 -2 -22 -4z"/>
<path d="M21998 93 c12 -2 32 -2 45 0 12 2 2 4 -23 4 -25 0 -35 -2 -22 -4z"/>
<path d="M18058 83 c12 -2 32 -2 45 0 12 2 2 4 -23 4 -25 0 -35 -2 -22 -4z"/>
<path d="M21898 83 c12 -2 30 -2 40 0 9 3 -1 5 -23 4 -22 0 -30 -2 -17 -4z"/>
<path d="M18163 73 c15 -2 37 -2 50 0 12 2 0 4 -28 4 -27 0 -38 -2 -22 -4z"/>
<path d="M21788 73 c12 -2 32 -2 45 0 12 2 2 4 -23 4 -25 0 -35 -2 -22 -4z"/>
<path d="M18273 63 c15 -2 39 -2 55 0 15 2 2 4 -28 4 -30 0 -43 -2 -27 -4z"/>
<path d="M21673 63 c15 -2 37 -2 50 0 12 2 0 4 -28 4 -27 0 -38 -2 -22 -4z"/>
<path d="M18403 53 c15 -2 39 -2 55 0 15 2 2 4 -28 4 -30 0 -43 -2 -27 -4z"/>
<path d="M21543 53 c15 -2 37 -2 50 0 12 2 0 4 -28 4 -27 0 -38 -2 -22 -4z"/>
<path d="M18528 43 c18 -2 45 -2 60 0 15 2 0 4 -33 4 -33 0 -45 -2 -27 -4z"/>
<path d="M21413 43 c15 -2 39 -2 55 0 15 2 2 4 -28 4 -30 0 -43 -2 -27 -4z"/>
<path d="M18678 33 c17 -2 47 -2 65 0 17 2 3 4 -33 4 -36 0 -50 -2 -32 -4z"/>
<path d="M21258 33 c18 -2 45 -2 60 0 15 2 0 4 -33 4 -33 0 -45 -2 -27 -4z"/>
<path d="M18843 23 c20 -2 54 -2 75 0 20 2 3 4 -38 4 -41 0 -58 -2 -37 -4z"/>
<path d="M21077 23 c18 -2 50 -2 70 0 21 2 7 4 -32 4 -38 0 -55 -2 -38 -4z"/>
<path d="M19033 13 c26 -2 67 -2 90 0 23 2 2 3 -48 3 -49 0 -68 -1 -42 -3z"/>
<path d="M20878 13 c23 -2 61 -2 85 0 23 2 4 4 -43 4 -47 0 -66 -2 -42 -4z"/>
<path d="M19268 3 c34 -2 90 -2 125 0 34 2 6 3 -63 3 -69 0 -97 -1 -62 -3z"/>
<path d="M20608 3 c34 -2 88 -2 120 0 31 2 3 3 -63 3 -66 0 -92 -1 -57 -3z"/>
</g>
</svg>
